# xmcd
#
# Track frame offsets:
#	150
#	7826
#	17831
#	25130
#	32634
#	41136
#	49029
#	56263
#	65281
#	74517
#	87543
#	94580
#	108396
#	115484
#	120810
#	129546
#	139685
#	147565
#	154724
#	158529
#	170586
#	182987
#	196617
#	208168
#	222731
#	229367
#	240498
#	249824
#	258547
#	264070
#	275996
#	282917
#	294188
#	301023
#	308476
#	309196
#	309982
#	310792
#	311435
#	312136
#	312893
#
# Disc length: 4179 seconds
#
# Revision: 1
# Processed by: cddbd v1.5.1PL0 Copyright (c) Steve Scherf et al.
# Submitted via: CDex 1.50Beta5
#
DISCID=33105129
DTITLE=Various Artist - スーパー特撮大戦2001 [CD1]
DYEAR=1900
DGENRE=Game
TTITLE0=君は閃光☆Thunderbolt(Bgm)
TTITLE1=君は閃光☆序章
TTITLE2=ギガント
TTITLE3=アミーゴ隊のテーマ
TTITLE4=仲間
TTITLE5=レッツゴーライダーキック
TTITLE6=ウルトラ警備隊
TTITLE7=戦えイナズマン
TTITLE8=ジャイアントロボ
TTITLE9=宇宙刑事ギャバン
TTITLE10=マクーの攻撃(レーザーブレードのテーマ)
TTITLE11=ルシファードのテーマ
TTITLE12=君は閃光☆インターミッション
TTITLE13=悪念力
TTITLE14=警備班のテーマ
TTITLE15=追跡・調査のテーマ
TTITLE16=ゴーゴー・キカイダー
TTITLE17=ジローのギター
TTITLE18=悪魔の笛
TTITLE19=ハカイダーの歌
TTITLE20=三郎のテーマ
TTITLE21=レッドバロン
TTITLE22=ボルテックスのテーマ
TTITLE23=君は閃光☆想い出
TTITLE24=霧の笛
TTITLE25=Dark Force
TTITLE26=Eater
TTITLE27=キカイダー01
TTITLE28=キカイダー01登場
TTITLE29=宇宙刑事シャリバン
TTITLE30=異次元大決戦(レーザーブレードのテーマ)
TTITLE31=宇宙刑事シャイダー
TTITLE32=青き閃光(レーザーブレードのテーマ)
TTITLE33=アニーにおまかせ
TTITLE34=アイキャッチ1
TTITLE35=アイキャッチ2
TTITLE36=アイキャッチ3
TTITLE37=アイキャッチ4
TTITLE38=アイキャッチ5
TTITLE39=アイキャッチ6
TTITLE40=アイキャッチ7
EXTD=
EXTT0=
EXTT1=
EXTT2=
EXTT3=
EXTT4=
EXTT5=
EXTT6=
EXTT7=
EXTT8=
EXTT9=
EXTT10=
EXTT11=
EXTT12=
EXTT13=
EXTT14=
EXTT15=
EXTT16=
EXTT17=
EXTT18=
EXTT19=
EXTT20=
EXTT21=
EXTT22=
EXTT23=
EXTT24=
EXTT25=
EXTT26=
EXTT27=
EXTT28=
EXTT29=
EXTT30=
EXTT31=
EXTT32=
EXTT33=
EXTT34=
EXTT35=
EXTT36=
EXTT37=
EXTT38=
EXTT39=
EXTT40=
PLAYORDER=
